<?xml version="1.0" encoding="utf-8"?>
<!-- Generator: Adobe Illustrator 21.1.0, SVG Export Plug-In . SVG Version: 6.00 Build 0)  -->
<svg version="1.1" xmlns="http://www.w3.org/2000/svg" xmlns:xlink="http://www.w3.org/1999/xlink" x="0px" y="0px"
	 viewBox="0 0 908 281" style="enable-background:new 0 0 908 281;" xml:space="preserve">
<style type="text/css">
	.st0{fill:#2895FE;}
	.st1{fill:#54AAFE;}
	.st2{fill:#FFFFFF;}
	.st3{fill:#F2B124;}
	.st4{fill:none;}
	.st5{font-family:'Avenir-Medium';}
	.st6{font-size:185px;}
	.st7{font-size:36px;}
	.st8{font-size:40px;}
</style>
<g id="Layer_1">
	<rect id="XMLID_1_" x="45.8" y="41.3" class="st0" width="196" height="196"/>
	<path id="XMLID_2_" class="st1" d="M144.5,140c32.4,32.4,64.8,64.8,97.2,97.2h-196l0-196C78.7,74.2,111.6,107.1,144.5,140z"/>
	<path id="XMLID_3_" class="st2" d="M144.3,139.8c21.9,21.9,43.7,43.7,65.6,65.6l-132.2,0V73.2C99.9,95.4,122.1,117.6,144.3,139.8z"
		/>
	<path id="XMLID_4_" class="st3" d="M143.1,138.8c-21.9-22-43.7-44-65.6-65.9L210,73.2l-0.4,132.6
		C187.5,183.4,165.3,161.1,143.1,138.8z"/>
</g>
<g id="Layer_2">
	<rect id="XMLID_6_" x="268.5" y="41.3" class="st4" width="460.6" height="169.3"/>
	<text id="XMLID_7_" transform="matrix(1 0 0 1 268.4594 181.145)" class="st3 st5 st6">LION</text>
</g>
<g id="Layer_3">
	<rect id="XMLID_8_" x="284.9" y="201.4" class="st4" width="595.5" height="45.9"/>
	<text id="XMLID_9_" transform="matrix(1 0 0 1 284.8892 228.5939)" class="st0 st5 st7">A Division of USALLIANCE Financial</text>
</g>
<g id="Layer_4">
	<rect id="XMLID_10_" x="722.2" y="77" class="st4" width="205.8" height="97.9"/>
	<text id="XMLID_11_" transform="matrix(1 0 0 1 722.2391 107.2618)"><tspan x="0" y="0" class="st0 st5 st8">CREDIT </tspan><tspan x="0" y="48" class="st0 st5 st8">UNION</tspan></text>
</g>
</svg>
