<?xml version="1.0" encoding="utf-8"?>
<!-- Generator: Adobe Illustrator 19.1.0, SVG Export Plug-In . SVG Version: 6.00 Build 0)  -->
<svg version="1.1" xmlns="http://www.w3.org/2000/svg" xmlns:xlink="http://www.w3.org/1999/xlink" x="0px" y="0px"
	 viewBox="0 0 60 60" style="enable-background:new 0 0 60 60;" xml:space="preserve">
<style type="text/css">
	.st0{display:none;}
	.st1{display:inline;fill:#1A1A1A;}
	.st2{display:inline;fill:#63666A;}
	.st3{fill:#63666A;}
</style>
<g id="bank" class="st0">
	<path class="st1" d="M55,46H5c-0.3,0-0.5,0.1-0.7,0.3C4.1,46.5,4,46.7,4,47v8c0,0.3,0.1,0.5,0.3,0.7C4.5,55.9,4.7,56,5,56h10
		c0.3,0,0.5-0.1,0.7-0.3c0.2-0.2,0.3-0.4,0.3-0.7v-7h28v7c0,0.3,0.1,0.5,0.3,0.7c0.2,0.2,0.4,0.3,0.7,0.3h10c0.3,0,0.5-0.1,0.7-0.3
		c0.2-0.2,0.3-0.4,0.3-0.7v-8c0-0.3-0.1-0.5-0.3-0.7C55.5,46.1,55.3,46,55,46z M14,54H6v-6h8V54z M46,54v-6h8v6H46z M41,54H19
		c-0.6,0-1,0.4-1,1c0,0.6,0.4,1,1,1h22c0.6,0,1-0.4,1-1C42,54.4,41.6,54,41,54z M38,52c0.6,0,1-0.4,1-1c0-0.6-0.4-1-1-1H22
		c-0.6,0-1,0.4-1,1c0,0.6,0.4,1,1,1H38z M10,43V29c0-0.6-0.4-1-1-1c-0.6,0-1,0.4-1,1v14c0,0.6,0.4,1,1,1C9.6,44,10,43.6,10,43z
		 M14,43V29c0-0.6-0.4-1-1-1c-0.6,0-1,0.4-1,1v14c0,0.6,0.4,1,1,1C13.6,44,14,43.6,14,43z M22,43V29c0-0.6-0.4-1-1-1
		c-0.6,0-1,0.4-1,1v14c0,0.6,0.4,1,1,1C21.6,44,22,43.6,22,43z M26,43V29c0-0.6-0.4-1-1-1c-0.6,0-1,0.4-1,1v14c0,0.6,0.4,1,1,1
		C25.6,44,26,43.6,26,43z M52,43V29c0-0.6-0.4-1-1-1c-0.6,0-1,0.4-1,1v14c0,0.6,0.4,1,1,1C51.6,44,52,43.6,52,43z M48,43V29
		c0-0.6-0.4-1-1-1c-0.6,0-1,0.4-1,1v14c0,0.6,0.4,1,1,1C47.6,44,48,43.5,48,43z M40,43V29c0-0.6-0.4-1-1-1c-0.6,0-1,0.4-1,1v14
		c0,0.6,0.4,1,1,1C39.6,44,40,43.6,40,43z M36,43V29c0-0.6-0.4-1-1-1c-0.6,0-1,0.4-1,1v14c0,0.6,0.4,1,1,1C35.6,44,36,43.6,36,43z
		 M55.5,20.2l-25-16c-0.3-0.2-0.7-0.2-1.1,0l-25,16C4.2,20.3,4,20.7,4,21v4c0,0.3,0.1,0.5,0.3,0.7C4.5,25.9,4.7,26,5,26h50
		c0.3,0,0.5-0.1,0.7-0.3c0.2-0.2,0.3-0.4,0.3-0.7v-4C56,20.7,55.8,20.3,55.5,20.2z M30,6.2L51.6,20H8.4L30,6.2z M54,24H6v-2h48V24z
		 M41.9,16.2L30.5,8.9c-0.3-0.2-0.7-0.2-1.1,0l-11.3,7.3c-0.5,0.3-0.6,0.9-0.3,1.4c0.2,0.3,0.5,0.5,0.8,0.5c0.2,0,0.4-0.1,0.5-0.2
		L30,10.9l10.8,6.9c0.5,0.3,1.1,0.2,1.4-0.3C42.5,17.1,42.3,16.5,41.9,16.2z"/>
</g>
<g id="borrow" class="st0">
	<path class="st1" d="M55.7,22.3C55.5,22.1,55.3,22,55,22h-5v-5c0-0.3-0.1-0.5-0.3-0.7C49.5,16.1,49.3,16,49,16h-5v-5
		c0-0.3-0.1-0.5-0.3-0.7C43.5,10.1,43.3,10,43,10H5c-0.3,0-0.5,0.1-0.7,0.3C4.1,10.5,4,10.7,4,11v26c0,0.3,0.1,0.5,0.3,0.7
		C4.5,37.9,4.7,38,5,38h5v5c0,0.3,0.1,0.5,0.3,0.7c0.2,0.2,0.4,0.3,0.7,0.3h5v5c0,0.3,0.1,0.5,0.3,0.7c0.2,0.2,0.4,0.3,0.7,0.3h38
		c0.3,0,0.5-0.1,0.7-0.3c0.2-0.2,0.3-0.4,0.3-0.7V23C56,22.7,55.9,22.5,55.7,22.3z M42,12v3.9c-2-0.4-3.5-1.9-3.9-3.9H42z M6,12h3.9
		C9.5,14,8,15.5,6,15.9V12z M6,36v-3.9C8,32.5,9.5,34,9.9,36H6z M6,30.1V17.9c3.1-0.4,5.5-2.9,5.9-5.9h24.2c0.4,3.1,2.9,5.5,5.9,5.9
		v12.2c-3.1,0.4-5.5,2.9-5.9,5.9H11.9C11.5,32.9,9.1,30.5,6,30.1z M42,32.1V36h-3.9C38.5,34,40,32.5,42,32.1z M12,42v-4h31
		c0.3,0,0.5-0.1,0.7-0.3c0.2-0.2,0.3-0.4,0.3-0.7V18h4v24H12z M54,48H18v-4h31c0.3,0,0.5-0.1,0.7-0.3c0.2-0.2,0.3-0.4,0.3-0.7V24h4
		V48z M24,14c-5.5,0-10,4.5-10,10c0,5.5,4.5,10,10,10c5.5,0,10-4.5,10-10C34,18.5,29.5,14,24,14z M24,32c-4.4,0-8-3.6-8-8
		c0-4.4,3.6-8,8-8c4.4,0,8,3.6,8,8C32,28.4,28.4,32,24,32z"/>
</g>
<g id="invest" class="st0">
	<path class="st1" d="M55.7,4.3C55.5,4.1,55.3,4,55,4H5C4.7,4,4.5,4.1,4.3,4.3C4.1,4.5,4,4.7,4,5v4c0,0.3,0.1,0.5,0.3,0.7
		C4.5,9.9,4.7,10,5,10h1v29c0,0.3,0.1,0.5,0.3,0.7C6.5,39.9,6.7,40,7,40h22v3.6L18.3,54.3c-0.4,0.4-0.4,1,0,1.4c0.4,0.4,1,0.4,1.4,0
		l9.3-9.3V55c0,0.6,0.4,1,1,1c0.6,0,1-0.4,1-1v-8.6l9.3,9.3c0.2,0.2,0.5,0.3,0.7,0.3c0.3,0,0.5-0.1,0.7-0.3c0.4-0.4,0.4-1,0-1.4
		L31,43.6V40h22c0.3,0,0.5-0.1,0.7-0.3c0.2-0.2,0.3-0.4,0.3-0.7V10h1c0.3,0,0.5-0.1,0.7-0.3C55.9,9.5,56,9.3,56,9V5
		C56,4.7,55.9,4.5,55.7,4.3z M52,38L8,38l0-28h44V38z M54,8H6V6h48V8z M21.3,25.3l-8,8c-0.4,0.4-0.4,1,0,1.4
		c0.2,0.2,0.5,0.3,0.7,0.3c0.3,0,0.5-0.1,0.7-0.3l7.3-7.3l2.3,2.3c0.2,0.2,0.4,0.3,0.7,0.3c0.3,0,0.5-0.1,0.7-0.3l7.3-7.3l2.3,2.3
		c0.2,0.2,0.4,0.3,0.7,0.3c0.3,0,0.5-0.1,0.7-0.3l7.3-7.3V21c0,0.6,0.4,1,1,1c0.6,0,1-0.4,1-1v-6c0-0.1,0-0.3-0.1-0.4
		c0-0.1-0.1-0.2-0.2-0.3c-0.1-0.1-0.2-0.2-0.3-0.2c-0.1,0-0.2,0-0.2,0c0,0-0.1,0-0.1,0h-6c-0.6,0-1,0.4-1,1c0,0.6,0.4,1,1,1h3.6
		L36,22.6l-2.3-2.3c-0.4-0.4-1-0.4-1.4,0L25,27.6l-2.3-2.3C22.3,24.9,21.7,24.9,21.3,25.3z M36,29c0,0.6,0.4,1,1,1h10
		c0.6,0,1-0.4,1-1c0-0.6-0.4-1-1-1H37C36.4,28,36,28.4,36,29z M13,16h10c0.6,0,1-0.4,1-1c0-0.6-0.4-1-1-1H13c-0.6,0-1,0.4-1,1
		C12,15.6,12.4,16,13,16z M47,32H33c-0.6,0-1,0.4-1,1c0,0.6,0.4,1,1,1h14c0.6,0,1-0.4,1-1C48,32.4,47.6,32,47,32z"/>
</g>
<g id="protect" class="st0">
	<path class="st1" d="M44,26.2V13c0-0.3-0.2-0.6-0.4-0.8C43.5,12.1,34.9,6,24,6C13.1,6,4.5,12.1,4.4,12.2C4.2,12.4,4,12.7,4,13v14
		c0.1,17.4,19.5,26.8,19.6,26.9C23.7,54,23.8,54,24,54c0.2,0,0.3,0,0.4-0.1c0,0,3.2-1.6,7.1-4.7C34.1,52.2,37.8,54,42,54
		c7.7,0,14-6.3,14-14C56,32.9,50.8,27.1,44,26.2z M25.8,50.8c-0.8,0.5-1.4,0.8-1.8,1c-0.5-0.3-1.3-0.7-2.4-1.4
		C16.3,47.1,6,38.8,6,27V13.5c0.2-0.2,0.6-0.4,1-0.6c2.7-1.6,8.8-4.6,16-4.9v39c0,0.6,0.4,1,1,1c0.6,0,1-0.4,1-1V8
		c4.7,0.2,8.9,1.5,12,2.9c1.7,0.7,3,1.5,4,2c0.4,0.3,0.8,0.5,1,0.6V26c-7.7,0-14,6.3-14,14c0,2.8,0.8,5.4,2.3,7.6
		C28.6,49,27,50.1,25.8,50.8z M42,52c-6.6,0-12-5.4-12-12c0-6.6,5.4-12,12-12c6.6,0,12,5.4,12,12C54,46.6,48.6,52,42,52z M47.3,35.3
		L47.3,35.3L40,42.6l-3.3-3.3c-0.4-0.4-1-0.4-1.4,0c-0.4,0.4-0.4,1,0,1.4l4,4c0.2,0.2,0.4,0.3,0.7,0.3h0c0.3,0,0.5-0.1,0.7-0.3l8-8
		c0.4-0.4,0.4-1,0-1.4C48.3,34.9,47.7,34.9,47.3,35.3z"/>
</g>
<g id="phone" class="st0">
	<path class="st2" d="M58,11c0-2.2-1.8-4-4-4H34c-2.2,0-4,1.8-4,4v12c0,2.2,1.8,4,4,4h1v7c0,0.4,0.2,0.8,0.6,0.9
		C35.7,35,35.9,35,36,35c0.3,0,0.5-0.1,0.7-0.3l7.7-7.7H54c2.2,0,4-1.8,4-4V11z M54,25H44c-0.3,0-0.5,0.1-0.7,0.3L37,31.6V26
		c0-0.3-0.1-0.5-0.3-0.7C36.5,25.1,36.3,25,36,25h-2c-1.1,0-2-0.9-2-2l0-12c0-1.1,0.9-2,2-2v0h20c1.1,0,2,0.9,2,2v12
		C56,24.1,55.1,25,54,25z M47,18H37c-0.6,0-1,0.4-1,1c0,0.6,0.4,1,1,1h10c0.6,0,1-0.4,1-1C48,18.4,47.6,18,47,18z M51,14H37
		c-0.6,0-1,0.4-1,1c0,0.6,0.4,1,1,1h14c0.6,0,1-0.4,1-1C52,14.4,51.6,14,51,14z M45.5,43.3l-12.6-6.7c-0.4-0.2-0.8-0.1-1.1,0.1
		l-4.7,4c-0.3-0.1-1.4-0.6-2.6-1.4c-1.4-1-3.1-2.4-4.7-4.1c-1.7-1.7-3.1-3.4-4.1-4.7c-0.9-1.2-1.3-2.2-1.4-2.6l4-4.7
		c0.3-0.3,0.3-0.8,0.1-1.1L11.7,9.5c-0.2-0.4-0.6-0.6-1-0.5c-2.3,0.3-4.3,1.2-5.8,2.7C2.9,13.6,2,16.3,2,19.3
		C2,26,6.2,34.4,13.4,41.6C20.6,48.8,29,53,35.7,53h0c3,0,5.7-0.9,7.6-2.8c1.5-1.5,2.4-3.6,2.7-5.8C46,43.9,45.8,43.5,45.5,43.3z
		 M41.9,48.8c-1.5,1.5-3.6,2.2-6.2,2.2c-5.8,0-14-3.8-20.9-10.8C7.8,33.3,4,25.2,4,19.3c0-2.6,0.7-4.7,2.2-6.2c1-1,2.4-1.7,4-2
		l6,11.3l-3.6,4.3c-0.3,0.3-0.4,0.8-0.4,1.1c0.1,1.2,0.8,2.3,1.8,3.8c1.1,1.5,2.6,3.2,4.3,5c1.8,1.8,3.5,3.3,5,4.3
		c1.5,1.1,2.7,1.8,3.8,1.8c0.3,0,0.7-0.1,1.1-0.4l4.3-3.6l11.3,6C43.6,46.4,42.9,47.7,41.9,48.8z"/>
</g>
<g id="email" class="st0">
	<path class="st2" d="M53.1,18.5L50,16.3V12c0-2.2-1.8-4-4-4h-7.8l-3.8-2.7C33.1,4.4,31.5,4,30,4c-1.5,0-3.1,0.4-4.3,1.3L21.8,8H14
		c-2.2,0-4,1.8-4,4v4.3l-3.1,2.2C5.1,19.7,4,21.8,4,24v28c0,2.2,1.8,4,4,4l44,0c2.2,0,4-1.8,4-4V24C56,21.8,54.9,19.7,53.1,18.5z
		 M50,18.7l2,1.4c0.5,0.3,0.9,0.7,1.2,1.2L50,24V18.7z M26.8,6.9C27.7,6.3,28.8,6,30,6c1.2,0,2.3,0.3,3.2,0.9L34.7,8h-9.4L26.8,6.9z
		 M12,12c0-1.1,0.9-2,2-2h32c1.1,0,2,0.9,2,2v13.8L35.6,36.7l-1.2-1C33.2,34.5,31.6,34,30,34s-3.2,0.6-4.4,1.7l-1.2,1L12,25.8V12z
		 M8,20.1l2-1.4V24l-3.1-2.8C7.2,20.8,7.6,20.4,8,20.1z M6,52V24c0-0.2,0-0.5,0.1-0.7L22.9,38L6.1,52.7C6,52.5,6,52.2,6,52z M52,54
		H8c-0.1,0-0.2,0-0.3,0l19.2-16.8c0.9-0.8,2-1.2,3.1-1.2c1.1,0,2.2,0.4,3.1,1.2L52.3,54C52.2,54,52.1,54,52,54z M54,52
		c0,0.2-0.1,0.5-0.1,0.7L37.1,38l16.8-14.7c0,0.2,0.1,0.5,0.1,0.7V52z M19,20h22c0.6,0,1-0.4,1-1c0-0.6-0.4-1-1-1H19
		c-0.6,0-1,0.4-1,1C18,19.6,18.4,20,19,20z M41,22H19c-0.6,0-1,0.4-1,1c0,0.6,0.4,1,1,1h22c0.6,0,1-0.4,1-1C42,22.4,41.6,22,41,22z
		 M34,27c0-0.6-0.4-1-1-1H19c-0.6,0-1,0.4-1,1c0,0.6,0.4,1,1,1h14C33.6,28,34,27.6,34,27z"/>
</g>
<g id="Layer_7">
	<path class="st3" d="M30,6c13.2,0,24,10.8,24,24S43.2,54,30,54S6,43.2,6,30S16.8,6,30,6 M30,4C15.6,4,4,15.6,4,30s11.6,26,26,26
		s26-11.6,26-26S44.4,4,30,4L30,4z"/>
	<path class="st3" d="M37.7,17.1c10.3,0,6,27-14.4,26.7c-1.3,0-2.6-0.1-3.9-0.4c1.7-0.7,3.3-1.6,4.9-2.8l4.7-3.7l-6-0.1
		c-1.4,0-2.5-0.4-3.4-1.1c0,0,0,0,0.1,0l8.7-2.4l-8.9-1.8c-1.6-0.3-2.9-1.3-3.7-2.6c0.2,0,0.3,0,0.5,0l7.5,0.2l-6.2-4.2
		c-1.6-1.1-2.5-2.8-2.5-4.7c0,0,0-0.1,0-0.1c4.3,3.9,9.5,6.2,14.9,6.5l2.8,0.1l-0.6-2.8c-0.1-0.4-0.1-0.9-0.1-1.3
		C32,19.7,34.6,17.1,37.7,17.1 M37.7,15c-4.3,0-7.8,3.5-7.8,7.8c0,0.6,0.1,1.2,0.2,1.8C23.6,24.3,17.9,20.7,14,16
		c-0.7,1.2-1.1,2.9-1.1,4.4c0,2.7,1.4,5.1,3.5,6.5c-1.3,0-3.5-0.9-3.5-0.9c0,0,0,0,0,0c0,3.8,2.7,7,6.3,7.7
		c-0.6,0.2-2.1,0.3-2.8,0.3c-0.1,0-0.2,0-0.3,0c1,3.1,3.6,4.9,7,5c-2.7,2.1-6.1,3.6-9.8,3.6c-0.6,0-1.3,0-1.9-0.1
		c3.5,2.2,7.6,3.5,12,3.5c14.4,0,22.3-11.9,22.3-22.3c0-0.3,0-0.7,0-1c1.5-1.1,2.9-2.5,3.9-4.1c-1.4,0.6-2.9,1-4.5,1.2
		c1.6-1,2.9-2.5,3.4-4.3c-1.5,0.9-3.2,1.5-5,1.9C42,16,40,15,37.7,15L37.7,15z"/>
</g>
</svg>
