<?xml version="1.0" encoding="utf-8"?>
<!-- Generator: Adobe Illustrator 19.1.0, SVG Export Plug-In . SVG Version: 6.00 Build 0)  -->
<svg version="1.1" id="Layer_1" xmlns="http://www.w3.org/2000/svg" xmlns:xlink="http://www.w3.org/1999/xlink" x="0px" y="0px"
	 viewBox="0 0 256 47" style="enable-background:new 0 0 256 47;" xml:space="preserve">
<style type="text/css">
	.st0{fill:#646569;}
	.st1{fill:#0033A0;}
	.st2{fill:#CF0A2C;}
	.st3{fill:#BDBBBB;}
</style>
<g>
	<path class="st0" d="M169.1,42.3h7.7v-2h-5.4V29.6h-2.3V42.3z M159.2,37.4l2-5.2l2,5.2H159.2z M154.8,42.3h2.5l1.1-2.9h5.5l1.2,2.9
		h2.6l-5.5-12.7h-2L154.8,42.3z M151.1,42.3h2.3V29.6h-2.3V42.3z M149.4,31.3c-1.3-1.5-2.7-2-4.5-2c-3.9,0-6.7,2.7-6.7,6.7
		c0,4,2.8,6.6,6.7,6.6c1.9,0,3.6-0.7,4.7-2.3l-1.9-1.3c-0.8,1.1-1.8,1.5-2.9,1.5c-2.6,0-4.4-2-4.4-4.7c0-2.5,1.7-4.5,4.4-4.5
		c0.9,0,1.7,0.3,2.7,1.3L149.4,31.3z M124.6,42.3h2.3v-9.7h0l6.3,9.7h2.9V29.6h-2.3V39h0l-6.2-9.4h-3V42.3z M114.7,37.4l2-5.2l2,5.2
		H114.7z M110.2,42.3h2.5l1.1-2.9h5.5l1.2,2.9h2.6l-5.5-12.7h-2L110.2,42.3z M97.3,42.3h2.3v-9.7h0l6.3,9.7h2.9V29.6h-2.3V39h0
		l-6.2-9.4h-3V42.3z M92.3,42.3h2.3V29.6h-2.3V42.3z M82.1,42.3h2.3V37h5.6v-2h-5.6v-3.3h5.9v-2h-8.2V42.3z"/>
	<path class="st1" d="M4,13.5c1.3-1.6,4.6-4.8,9.7-5.6C19.5,7,26,9.3,33,14.8c1,0.8,2.1,1.6,3.1,2.2l0-1.1v-3.4
		c-0.3-0.2-0.6-0.5-0.9-0.7C27.3,5.6,19.9,3,13.1,4.2C9.1,4.9,6.1,6.7,4,8.4V13.5z M13.7,18.7c5.8-1,12.3,1.4,19.3,6.9
		c1,0.8,2.1,1.6,3.1,2.2l0-2.3v-2.2c-0.3-0.2-0.6-0.5-0.9-0.7c-7.8-6.2-15.2-8.8-22.1-7.6c-3.9,0.7-7,2.5-9.1,4.2v5.2
		C5.3,22.7,8.6,19.5,13.7,18.7"/>
	<path class="st2" d="M49.4,21c11.3,0,20.2-8.5,23.7-12.3V3.1L73,3l-1.1,1.5c0,0.1-4.4,5.9-11.2,9.6c-7.4,4.1-14.6,4.1-21.6,0.2v4.2
		C42.7,20.3,46.2,21,49.4,21 M71.9,15.2c0,0.1-4.4,5.9-11.2,9.6C53.3,28.9,46,29,39.1,25v4.2c3.6,1.7,7.1,2.4,10.4,2.4
		c11.3,0,20.2-8.5,23.7-12.3v-5.6L73,13.7L71.9,15.2z M73,24.5L71.9,26c0,0.1-4.4,5.9-11.2,9.6c-7.4,4.1-14.6,4.1-21.6,0.2v0.2V40
		v0.2c3.6,1.7,7.1,2.4,10.4,2.4c11.3,0,20.2-8.5,23.7-12.3v-0.2v-5.4v-0.2L73,24.5z M36.1,34c-0.3-0.2-0.6-0.5-0.9-0.7
		c-7.8-6.2-15.2-8.8-22.1-7.6c-3.9,0.7-6.9,2.5-9.1,4.2V35c1.3-1.6,4.6-4.8,9.7-5.6c5.8-1,12.3,1.4,19.3,6.9c1,0.8,2.1,1.6,3.1,2.2
		V34z"/>
	<polygon class="st0" points="179.9,29.9 179,29.9 179,29.6 181.2,29.6 181.2,29.9 180.3,29.9 180.3,32.5 179.9,32.5 	"/>
	<path class="st0" d="M184.1,31.2c0-0.4,0-0.9,0-1.3h0c-0.1,0.3-0.2,0.7-0.4,1.1l-0.5,1.4h-0.3l-0.5-1.4c-0.1-0.4-0.3-0.8-0.3-1.1h0
		c0,0.4,0,0.9-0.1,1.3l-0.1,1.3h-0.4l0.2-3h0.5l0.5,1.4c0.1,0.4,0.2,0.7,0.3,1h0c0.1-0.3,0.2-0.6,0.3-1l0.5-1.4h0.5l0.2,3h-0.4
		L184.1,31.2z"/>
	<path class="st0" d="M237.9,23.8h14.4v-3.3h-10.7v-5.5h9.3v-3.3h-9.3v-5h10.2V3.6h-13.8V23.8z M235.2,6.2c-2-2.3-4.4-3.2-7.1-3.2
		c-6.2,0-10.7,4.2-10.7,10.7c0,6.3,4.5,10.6,10.7,10.6c3,0,5.7-1.1,7.6-3.6l-3-2.1c-1.3,1.7-2.9,2.5-4.6,2.5c-4.2,0-7-3.2-7-7.5
		c0-4,2.8-7.3,7-7.3c1.4,0,2.8,0.4,4.3,2L235.2,6.2z M196.9,23.8h3.6V8.3h0.1l10,15.6h4.6V3.6h-3.6v15.1h-0.1l-9.8-15.1h-4.8V23.8z
		 M181.1,16.1l3.2-8.3l3.1,8.3H181.1z M174,23.8h4l1.8-4.6h8.8l1.9,4.6h4.1L186,3.6h-3.1L174,23.8z M168.2,23.8h3.6V3.6h-3.6V23.8z
		 M153.8,23.8h12.2v-3.3h-8.6v-17h-3.6V23.8z M139.3,23.8h12.2v-3.3h-8.6v-17h-3.6V23.8z M123.5,16.1l3.2-8.3l3.1,8.3H123.5z
		 M116.4,23.8h4l1.8-4.6h8.8l1.9,4.6h4.1l-8.7-20.3h-3.1L116.4,23.8z"/>
	<path class="st3" d="M114.6,5.1C113,3.6,110.9,3,108.7,3c-3.8,0-7.5,1.9-7.5,6.1c0,7.3,9.6,4.7,9.6,9.1c0,1.9-1.9,2.8-3.6,2.8
		c-1.6,0-3.1-0.8-4-2.1l-2.7,2.6c1.7,2,4.1,2.8,6.6,2.8c4,0,7.4-2.1,7.4-6.5c0-7.2-9.6-4.9-9.6-9c0-1.9,1.7-2.6,3.3-2.6
		c1.4,0,2.8,0.5,3.6,1.6L114.6,5.1z M98.4,3.6h-3.6v12.7c0,2-1.1,4.6-4.6,4.6c-3.5,0-4.6-2.6-4.6-4.6V3.6h-3.6v12.8
		c0,4.9,3.5,8,8.2,8c4.6,0,8.2-3.1,8.2-8V3.6z"/>
</g>
</svg>
